<mxfile host="app.diagrams.net" modified="2021-02-16T06:14:38.384Z" agent="5.0 (Windows NT 10.0; Win64; x64) AppleWebKit/537.36 (KHTML, like Gecko) Chrome/88.0.4324.150 Safari/537.36" etag="17hd9lr5AzPn2yaGOPMK" version="14.3.2" type="github">
  <diagram name="Page-1" id="12e1b939-464a-85fe-373e-61e167be1490">
    <mxGraphModel dx="1422" dy="705" grid="1" gridSize="10" guides="1" tooltips="1" connect="1" arrows="1" fold="1" page="1" pageScale="1.5" pageWidth="1169" pageHeight="826" background="#ffffff" math="0" shadow="0">
      <root>
        <mxCell id="0" />
        <mxCell id="1" parent="0" />
        <mxCell id="FG6nhcTltKGhE41hHq1z-9" style="edgeStyle=orthogonalEdgeStyle;rounded=0;orthogonalLoop=1;jettySize=auto;html=1;exitX=1;exitY=0.5;exitDx=0;exitDy=0;entryX=0;entryY=0.5;entryDx=0;entryDy=0;" edge="1" parent="1" source="FG6nhcTltKGhE41hHq1z-3" target="FG6nhcTltKGhE41hHq1z-4">
          <mxGeometry relative="1" as="geometry" />
        </mxCell>
        <mxCell id="FG6nhcTltKGhE41hHq1z-3" value="Commit to Source Control" style="rounded=1;whiteSpace=wrap;html=1;fillColor=#dae8fc;strokeColor=#6c8ebf;" vertex="1" parent="1">
          <mxGeometry x="490" y="490" width="120" height="60" as="geometry" />
        </mxCell>
        <mxCell id="FG6nhcTltKGhE41hHq1z-10" style="edgeStyle=orthogonalEdgeStyle;rounded=0;orthogonalLoop=1;jettySize=auto;html=1;exitX=1;exitY=0.5;exitDx=0;exitDy=0;entryX=0;entryY=0.5;entryDx=0;entryDy=0;" edge="1" parent="1" source="FG6nhcTltKGhE41hHq1z-4" target="FG6nhcTltKGhE41hHq1z-5">
          <mxGeometry relative="1" as="geometry" />
        </mxCell>
        <mxCell id="FG6nhcTltKGhE41hHq1z-4" value="Build/Compile" style="rounded=1;whiteSpace=wrap;html=1;fillColor=#dae8fc;strokeColor=#6c8ebf;" vertex="1" parent="1">
          <mxGeometry x="670" y="490" width="120" height="60" as="geometry" />
        </mxCell>
        <mxCell id="FG6nhcTltKGhE41hHq1z-11" style="edgeStyle=orthogonalEdgeStyle;rounded=0;orthogonalLoop=1;jettySize=auto;html=1;entryX=0;entryY=0.5;entryDx=0;entryDy=0;" edge="1" parent="1" source="FG6nhcTltKGhE41hHq1z-5" target="FG6nhcTltKGhE41hHq1z-6">
          <mxGeometry relative="1" as="geometry" />
        </mxCell>
        <mxCell id="FG6nhcTltKGhE41hHq1z-5" value="Test" style="rounded=1;whiteSpace=wrap;html=1;fillColor=#dae8fc;strokeColor=#6c8ebf;" vertex="1" parent="1">
          <mxGeometry x="830" y="490" width="120" height="60" as="geometry" />
        </mxCell>
        <mxCell id="FG6nhcTltKGhE41hHq1z-12" value="" style="edgeStyle=orthogonalEdgeStyle;rounded=0;orthogonalLoop=1;jettySize=auto;html=1;" edge="1" parent="1" source="FG6nhcTltKGhE41hHq1z-6" target="FG6nhcTltKGhE41hHq1z-7">
          <mxGeometry relative="1" as="geometry" />
        </mxCell>
        <mxCell id="FG6nhcTltKGhE41hHq1z-6" value="Deploy&amp;nbsp;" style="rounded=1;whiteSpace=wrap;html=1;fillColor=#dae8fc;strokeColor=#6c8ebf;" vertex="1" parent="1">
          <mxGeometry x="1020" y="490" width="120" height="60" as="geometry" />
        </mxCell>
        <mxCell id="FG6nhcTltKGhE41hHq1z-7" value="Server&amp;nbsp;" style="rounded=1;whiteSpace=wrap;html=1;fillColor=#f5f5f5;strokeColor=#666666;fontColor=#333333;" vertex="1" parent="1">
          <mxGeometry x="1180" y="490" width="120" height="60" as="geometry" />
        </mxCell>
        <mxCell id="FG6nhcTltKGhE41hHq1z-13" value="" style="shape=flexArrow;endArrow=classic;html=1;fillColor=#f8cecc;strokeColor=#b85450;" edge="1" parent="1">
          <mxGeometry width="50" height="50" relative="1" as="geometry">
            <mxPoint x="490" y="580" as="sourcePoint" />
            <mxPoint x="960" y="580" as="targetPoint" />
          </mxGeometry>
        </mxCell>
        <mxCell id="FG6nhcTltKGhE41hHq1z-14" value="" style="shape=flexArrow;endArrow=classic;html=1;fillColor=#e1d5e7;strokeColor=#9673a6;" edge="1" parent="1">
          <mxGeometry width="50" height="50" relative="1" as="geometry">
            <mxPoint x="490" y="630" as="sourcePoint" />
            <mxPoint x="1130" y="630" as="targetPoint" />
          </mxGeometry>
        </mxCell>
        <mxCell id="FG6nhcTltKGhE41hHq1z-15" value="CI - Continuous Integration&amp;nbsp;" style="text;html=1;align=center;verticalAlign=middle;resizable=0;points=[];autosize=1;fontSize=20;" vertex="1" parent="1">
          <mxGeometry x="510" y="585" width="260" height="30" as="geometry" />
        </mxCell>
        <mxCell id="FG6nhcTltKGhE41hHq1z-17" value="CD -&lt;span&gt;&amp;nbsp;Continuous Delivery and Deployment&amp;nbsp;&lt;/span&gt;" style="text;html=1;strokeColor=none;fillColor=none;align=center;verticalAlign=middle;whiteSpace=wrap;rounded=0;fontSize=20;" vertex="1" parent="1">
          <mxGeometry x="519" y="640" width="570" height="20" as="geometry" />
        </mxCell>
        <mxCell id="FG6nhcTltKGhE41hHq1z-19" value="" style="shape=image;verticalLabelPosition=bottom;verticalAlign=top;imageAspect=0;aspect=fixed;image=data:image/jpeg,/9j/4AAQSkZJRgABAQAAAQABAAD/2wCEAAkGBxETERUTExMWFRUTFxkaFRUWFRcYGBgYGBUXFxgYHxkaHiggGBooGxgXITEhJSkrLi4uGB8zODMvOCgtLisBCgoKDg0OGxAQGzMmICUtMi0tLSstLS0rMDEtLS8tLy0tLS0tLS0vLS0rNTUvLS0tLS0uLS0vKy0vLS0tLS0vL//AABEIAOEA4QMBIgACEQEDEQH/xAAcAAEAAgMBAQEAAAAAAAAAAAAABgcDBAUCAQj/xABLEAACAQMBBQUEBAsECAcBAAABAgMABBEhBQYSMUEHE1FhcSKBkbEUMlKhCCMzQkNicoKSosE1ssLRFRY0U3Oz4fAXJGOTo7TDdP/EABoBAQACAwEAAAAAAAAAAAAAAAACAwEEBQb/xAAwEQACAgEDAgIIBgMAAAAAAAAAAQIRAwQhMRJBBRMiUXGBkaGxwTJCYeHw8RRi0f/aAAwDAQACEQMRAD8AvGlKUApSlAKUpQClKUApShNAK5m3tv21nH3lxKsa9AdWY+CqNWPoKg+8XaLLLMbPZMYmlGj3B/JR64JGdGx9o6eAaohtOwtLZjNfyPtG8YgcGWMYY8owPzv2cY/VFDJ094O21jlbK3AHSWc5OfKNT8291Rqy2vt/aTHuppiudWRhDEvlxLjPpqamuytzZLvgl2iqRxprDYRALHGCB9crqzaarnHyqcxBI1CRqqqowqqAqgeAA0A9KqllS4LI47Kpi7MtqOMy34DeHeTyfecV8fcHbkOsF9xY6C5nQ/Ajh++rXMpr5xnxqrzmT8tFSDfLeDZx/wDNI0kYOpmQMpHlNHy95PpVibk9pNpfkRkdxOf0TkEN48D6cXoQD5V1ixIIOoPMHUH3VX++PZxDKDLZqIZl1CL7EbkHIwBpG+eRGBnn4iccyfJGWL1FwUqsOy7tBaZvoN6StymVR20MnDzRvCUY/ewevOz6vKRSlKAUpSgFKUoBSlKAUpSgFKUoBSlKAUpSgFKUoBVa9tW8phgS0ikCSXRxI2cFIhgNnGqhiQM+AfFS7fbb30KxmuNCyLiMHkZGIVAfLiIz5A1RW7OwBch9obQkdo2c4GfxlxJ116IDkaY5dANRlHRg3otLW3Fps5ZZWP5adIyGc8iQD7WvTTQaDxqQ9mGyknzfyAHgZkt0OvBjR5COjk6DwA861P8AWF0Xgto47eMcljQZ95I1Pure7H3b6Pd55G7fH/tx5++q8jqJOCtk/kkz6Vr3dxHEhklkSJB+dIwVfia8314kMUk0n1IkZ29FUsffpVbbM3bn2u302/kdIm1t4IyBhOmCQQAfHGW55AwK1opPdlzdbIsaw2hDOvHDKkq5xxRuGGfDTka2a4W7m6VrZM7QBwZAAwZyw9kkg4PXU13ai6vYkr7ivFxOkaNJIwRI1LOx0AA5mvdYL6zjmjMcqh0bHEp5HBBAPiMgaUQZSvaDtnZ9zKtzZtIk6kByUKB8fVkBzlXXA5gZGPCro7Nd5/p9ikjkd9Ge7mx9tQPax04lIb3kdK5e1dz7CdOB7dF00aNQjr6FR9xyPKo52WW0lhtW4sHbiWWISRty4uBvZbHQ8LMD5pW1jmnsjXnFrcuGlKVaVilKUApSlAKUpQClKUApSlAKUpQClKUApSod2k77ps6DC4a5lB7pDyXoZGH2R4dTp4kARvt72tGLaK2DjvWkDsg5hFVwGPgOIjHjg+FRiSTEFrEPqxW8X8TorufUk/dUK2lBK6NdXDlpZnB9r6zZ5sfDTGB0AHkK7FptC6nVPo9pJKI440ZgrMOJI1Q6qMDUcs5rCknwWzxTx0pLlWdV2wCfAZqb9l1qU2bEx5zGSU/vueH+QLVaW20+8LwuhjlwwKMCDnHLUAg+RFWzuHMG2balekSqfJk9hh68Smqs79Ezi5OttCyjmieKQcSSKVcZIyCMHUais0aBQABgAAADkANAK9UrVLz5MrcDFQCwU8IPVgDgfGtTY+0FuII5l0EqBsHmCRqp8wcg+lcrae/1laztbzM6ugUk92xX2hkark/dUb3P3jRtpy29qTJazccwyrL3Mh9qQDOvds3kNW087Oh1ZDq3J5tK+SCF5pCQkSlmIGSAOenWthWBGRyPKtfaVms0MkL/AFZUZG9GUqfnUV7PNtOVewuDi5s/YOfz4xorjxwMe4qetRStWSvcke8G0DbQGcjKI6d55Rs6q7e4HPuqO7cbg25sqVf0nfRsR1BQgev5TNc/ezfO545rEbNkkDBo+LLkOrDHEAsZGMHPOo1vVFewWOze+JS4hZwhVsuqqEMeSPzwABpnlVuONNMrk7TR+iKVBuzHftdoRGOXC3UQ9sDQSLy7xR8x0PkRU5rZNcUpSgFKUoBSlKAUpSgFKUoBSlKAUpSgOdvDtmKztpLiU4SMZx1YnRVHmWIA9a/Okcst/dSXlxrxNovTT6qD9RRj1PqalnbXt1ri7j2fEfZiIaTHWVhkZ8lQ5/e8q5EcSxoqLyAx/wBfU1r6jJ0qlyzseEaNZZ+ZP8Mfm/59jnS2H0vaNtakkK5AYjnw+0z48+FKnm9+0do2s1vbbPSJI2ysMCorM4jVWdiWwqIOIDmD1J1qBvffRb61uj9WNxx4+zkhvfws3wq5Lyx7y7t7lSCsaTLodCJRGVYeI9j+aoRlUIlWuTepnfN/L+is96BNfrDeRWzC7glaC7iRSSGQcSk9eHmM/rAa4qa9m1jcw2fBcR92xlkZUJBIVyG1wTj2i2lSG2sY43kkUYaYq0nmyqEB9cAfCtmsSyWqNZQp2KUpVZM5+09iWtxjv4I5SORdASPQ8xXvZmyLe3BEEMcQb63AoXPqRqffW7Ss2+DFCoXv7u7KzJfWeVu7cch+lQfm4/OIGdOoJHhiXbPvopolkjPErFsH9l2Q/eprxtDaEMCd5NIkaD852Cj0GeZ8hWU2mYdNHL3Q3oivoA6ezIuBLFnVG/qp6H+oNRftZk/G2KdS8jfwqn+dY9ybdbja1zfQIy2xUqjcLKsrvwcRGQNMqxI8SOtavaPOH2nCn+4gZj5GRiPkBUmkm/Z9izTpyyQX+y+pEbky2k6XdueFkYHTkD1BHVWGQR5+dfovdTb8d9ax3EegcYZeqONGQ+h+IwetUXNGGUqRkEYNdLsd24bS/eykb8XcnC55CUD2D+8vs+oUVPT5OpdL7Gx4rpFin5keH9f3L5pSlbJyBSlKAUpSgFKUoBSlKAUpSgFa2071YIZJn+rEjO3ooJ/pWzUD7atpd1st1HO4dIh6El2/lRh76ApzYLtPNNdSfXdmJ6+0542x5DIA8q7BNaexYuC2QdW9o/vHPyxW3XMyy6ptntdDi8rTwj+lv2vc1toWglQodPA+B6Gs27O/txYKLeeLvY10j9rhZR4BsEMngNMePQe68SxhgQQCD41nHk6VTVop1mgWd9SdSJhufvFe7Su+8RVgsoMiRdGeR2Q8KlsaYyraYxgc81Oqq7sPv+CS5tG0JxIvmUPdv80q0nGtXZEk9jzUL7nylcqba4ju0t5BhZ0zA/RnUnvIz+tw8LDxy3hXVquiR9kUgcsnoM/94qKx7/2Ado5Xe3lQ4eOaNlKn1GVI886jWuvvFs554x3chiljYPEwJ4eNeQcD6yHkR51D5t49lXmYtpQrBcREq6ygjhYc+CZdQvUZI0PXnU4xTIttHLh7mJnFrt+KCB3ZxEURinGeIgMzaanwHx1rYubDZFuyT313JevIoePvCZFZSSAVRBjhJB5nGleZNz9hPql6FHlcxsP5gTXYtdz9lXIiUSm4+ixiPCzD6vG7rx93jXJbw5VY2v1I0zzu9vTPtCfgtou4tIMd7KwHE2PqxqB7KZ64yQPDSoS199JvLq6/NeThjP8A6aaKfeoU++px2g7UisLEW1uqxvODHEiADhU/XfA9cZ8WFQbZlr3cSp1A19Tqf+/KqsjSjt3Ol4Zics/U/wAv1eyNquHvCjI0c8Z4XQjDeDA8SH3EV3K09rw8ULjyyPUa/wBKqxS6Zpna1uLzcEo/pa9x+hN39prc2sNwvKaNWx4EjUe45HuroVXPYVtDvNnGMnJglZR+y2JB97N8KsaumeLFKUoBSlKAUpSgFKUoBSlKAVUf4Qs/4m0j8ZJH/hQL/jq3Kpf8IbPeWPhwz/OCgI+q4VV+yoHwFK+sda+VyD34pWG5uUjHE5AHz9B1riy7SmnPBApA6t1955L86sx4pTexp6rW4dOvTe/q7m6m1RZ7QguV5qfxqg80I4WyOpKk6eKir8EiuqyIQyuAVYciCMg/CvzzHu57J4nPGfDkD551Nd/cnfq4ssWcsL3EYbEaJrKpY/VQfpFJOQvPXQ9K3p6eUYo8pLVxzZZTSq+xaO8mxI7uAxMSrAhopF+tHIuqup8Qa5u7W8Ts5s7wCO8jHok69JYz1z1XmPjjAvaPs3OJJJIW+zNDKpHkfZIqK79b4bNucRiKWYx6x3MLCMxk9UY6kcs5GMgdRkUxi+GiTkuUWvXF29upZXZ4p4QzgY41JR8DkOJSCR5HNVjsDtRuYcJOv0hByc4SXHTJGVb36+dSf/xcseHJjnBxnhKx5+PHinlzT2MdcWjeTsv2YDkpI3kZnx9xBrryNY7Mt2YKkEYOcKPadsch1dzgDWoRtHtQuZEZrSzcKASZpFLqo8TwjgHvaq9urm6vJO8kaSdx1PIDwGMKg8hipKEn+J7BPeoK2be1t4Hubz6VKpwThF6KgyAo8SM5PmTUghlV1DKcg8jXKspI54zDIgRk04QMY8xnkfKucDLaSa6of4W/yarM+m6oqUTY8N8S8ibx5Fs37yU18YZGPGsVpcrIoZTofuPgazVzWqZ6yMlJWuGSD8Hqch72I8uGFgPMGZW/w/CroqkewL/a7z/hp/zHq7q654OSp0KUpQwKUpQClKUApSlAKUpQCqk/CFg/EWknhI6fxJxf/nVt1Bu2bZvfbKkIGTAySj908LH+B2oCrIJOJVbxAPxGa5u1tsd0eBRlsak8hn51m2DNxQL+rlT7jp92K5e3B3dwkmMg4OPNdCPhitDFCLydMj1Ws1ORaRZcfLr5/ue7PZUkx7yYkA8hyJH+EV2g8cY4VAAH5or5eNmPiU6HB06g1za7UYqCpHiZ5JZX1SZtS3rHlp860ZYskNkh1IKupwwIOQQfEHWslKw9+TC24JXsztPvoVC3EUd2o/PxwSY/WwCD8BULXbPcQGbgDPPM+eg8Ty6a6DzrZrh7d/2cp1SfP7roSPvWtXPjVL1WdTQaiUJSktpKLr+eyxLvHDKfxlsBn86NsN8sH31ILS+urIqsMsTozDhjlVHwWPPhIyvmVIqvEYgggkEciOdSrYlrdXEkcHEGlkI7sPwgrj28s+MjRTpqflVLhVJcGwtQssZPKrfZql8aq79529r7wXF3MsN1JxRoxXu7dSqF1GdV1LHXGenTGtcvena0sDJHARGnBnAUcWckag6jQD11qW/+Fl8kJlVojIOLMKcQHtAgkSnHt4PUAZxrUG/1TnaR4+5m7yPHeKSpK5GRnOOY1508q2r+BJatQxyjj2bfN0622v8AoybKuGdg7HLOntHxIbhz91duWcNGyyDIwdeowNK5GzbYxOY2DKyLjhYcLasWJx762doviM+eg99bmP0YHJzvry2bW66ERMftNp7gB867DtgE+GtYbGDgjVfAa+vM/fmsO2ZuGFz4jA9W0/rXGk+uftZ7jEv8fTK/yq/uS/8AB5tzxXsp5EQqPX8azfNfjVzVXvYds4xbM7wjBuJXf90YjX+4T76sKumeMFKUoBSlKAUpSgFKUoBSlKAVgvrVZYnicZWRWVh5MCD86z0oD8u7Nge2uZrST60bsuvUocZ9CuGHlWfeC34oSeqe17uv3fKpj247vGKaPaMQ0Yqk2OjjSNj5FRwe5fGo1bTrIgYcmGo+4itPOuiamj0PhuRZ9PLTy93sf/H9jR2LLx2/D1TK/DUfMfCsVeNgexNLF8P3T/kRWV1wSPA11YS6opnlMsHDJKLPNeJZAuM9SAPUnFe6w3CZMf8AxE/vVlkVyZyMaVzdq23EORIYYbHMEHKnl6j312b76593yrVfODjnjT1rE42qJY5uLtGrutu2Z5CEXu1T68p9ph+qudOL3DHwBme2d1o1twbZeCaA94jj67MuCct1OmR5gVwt196Bar3M0ZC8RPeLq2SdSR+d6j4VPrDaEUy8UTq48jqPUcwfWo44Qqu5LNlydSfZfA7G7u1LS9trO/nnMD2zspHe93GZXHAVYHRs8wPA1wgB/pLaTAfp41/hgjH9a0d1YoYdpyWc8aPb3hE0SOoKiVMnkeuje4KOtaW2ts939LeM/jbq7n7vyVCIjJ6Dg088VCG0tyeX0obdzjbz3azXWVA4YAUDDmzZ9rXqF5Dz4q5HBxzxp0X2m93L/vzrLGgVQByAr3u8nEZJT+ccL6DX/L4VHUz6cb9bNnwzB52ojHsvsdquHtwPLLFbRDLuygDxZzwoPia6dxfxJnidcjpkZ9MV3exTYn0m8kvZMEQaINPyjjnjwVOvi3lXP0+NuXUz0Xi2qjHF5cXu+fYXRsbZy29vFAn1YUVB+6AM/wBa3KUrePMilKUApSlAKUpQClKUApSlAKUpQGntjZkVzBJBKOKOVSrD5EeBBwQfECvzdfWEuzLx7Wf6ucq/RlP1ZB5HkfAg+Ffp2oxv9udFtG34CQkyZMMuPqt9k+KHqPfzFRlFSVMtw5pYZqceUUDIeG+U9HA+8Ef0FbN4MOa5V9Z3FtdLDcKUkhZRg/Z4sgg/nKdcGuxtAe37hV+BVCvUa+tmsmZzXfc1q0xeqSgOhEi5B6YYZ18K3CitoxYDxUgH7xWpf2ECxs4Z8rgkEjUZGenPGanK+xRDpvc3b+6j4z7a9Oo8K1Gv4x+d9xq79m9k+yUAJieXIBzJK5z7lIH3V3bTcnZkf1LK3B8TEpPxIJqDystWFH5sm2nARhjn1/61pC8RG4oZGRhyw2D8Qc1+so9kWy/VgiHpGg/pXp9l255wxH1jU/0qDk2TjBLg/LFzvDcyd0WfLwOHjkwA4III1GhGQDqOlYo9onm2WbGB0AGSce8kk+tW72w7v2sdpJNHbxRujxe2iKpw0iqRoP1qrjbNvCIW4FUMMEcIGeeuo8qlFN2zE3FVGuTjXG1OIFRgZ565NSTdncval9GvdJ3UHSSQ92rDOpAA4n9QMedWDsLZUV9uyECL3ixSBW4Rxd5C7cJzz14QPQ1191e8vNiW/DNKh7pQ5g4BK4ReEorvohJXn94quXpclkG4J9OxyN3eyOwiYLdz/SJSNIg3dKPMKrcbepOPKuJvNsX/AEDfW95bM/0aRuGRCSxAGrpnmwK5Zc6gqdasDdaB7Yd3FstoVJyztPC8jn7TniJY+pNYe2GwEuyZz1i4ZR5cDAt/JxUBNI3DAMDkEAgjkQdQa9VD+ybahuNlQE6tEDE2f/TPCv8ALwn31MKGBSlKAUpSgFKUoBSlKAUpSgFKUoBSlKAp38ISID6FJjUGUE9f0TAfcfjUJ2kfb939TVnduOw57i1heGNpO4di6oMtwMuMhRqcEDl41TC7WJOJBgjQkDljxHSrcckrTKssG6aN+sN6nFG48VPyrIjgjIOR5V9YZGKtKFsz9Gbo3fe2NrJ9uCM/yDP3116hPY3ed5smEdYTJGfLhckfylam1apuClKUBX/a8mdn3PksZ+EqH+lUvdDMbfsn5VefahFxWF55QM38I4v8NUK99Hw4zkkY0B8KsxtbleRN1RbnYXtBf9HzRt+jnbA8nRW+fFWfsim4dl91lgElmQFThgBKx0PjhqgnZTsq/ue/jtrn6NEOAyyd3xEt7QCoTyOM51HSpXf9j0iQP9Gv5zLqyoWMcbtnXPCdCfHxxmqy0mUOzFVuIXN6D5z8Y+Dgise++0UXZ9wWJKrBIDxYyxKFVGmmSTj31Wthu3tG3xnYvfSD9K17xZPjw8eBXVud1NtbTZEu1SztVYFo1dWY464UtxN4cRAHPBoCUditk0eyoy36V5JB6FuFT7woPvqd1hsrVIo0ijUKkahUUcgqjAHwFZqGBSlKAUpSgFKUoBSlKAUpSgFKUoBSlKAVHt59y7G+H4+IcfSVPYkH7w+sPJsjyqQ0oChNv9kN9AS1o4uE6DIjlA8wTwt7iPSonNYbRibhktJ8jxt5dfQquD7q/U9Kym1wYaT5Kk7AL/2Ly3OQySrLwnTHGvAwwfAxa+tW3VQ7KH0HeiWLOI71Cyjzcd4P/kjlHvq3qwZFKUoCL79x8Vrcjxtpf+W9Vrtndu2/0Es0UKLKIoZWkC+2ccJkyx15FtOVWtvZFmCQfaikHxQ/51CtjMjbBjEjBVazKksQB+TK8zQyTDs8dDsuzKAAdxHkD7QUBvfkGpDVfdht2z7KVTn8VLIoz4Eh8e4uRVg0MClKUApSlAKUpQClKUApSlAKUpQClKUApSlAKUpQClKUApSlAVV23WrQtZ7RjHt20oDY6gMJEGfDKsv79WTszacNwgkhkSRWAOVYHGfHB0NYd49ixXltJbS54JBzGOJSCGVhkEZBAPuqprvsRnRuO2vFz0Lo0bfxoT8qAuuvhOKpSLcbeWLRL4Ef/wBk5HweOsjbn70Po16vvuXH92KgLT2rKjrwg+OT0wRjnVG9nG4Ee0O+76d0W2cJwIASc51DNkKNCNBXbPZJtSf/AGq/Qg8x3k8w+DhRVkbj7nQbNhaOMl3kIMkjYBYgYUADRVGTgeZ8aGTp7A2LBZwLBAvDGmeuSSdSxJ5knrXRpShgUpSgFKUoBSlKAUpSgFKUoBSlKAUpSgFKUoBSq27ZtkotnJepJNHMjRDKTyqpDSLGQUDcPJuYAOQKjvYns/6U8008s7tbvEYwbibhB9pslQ2G1A0OR5UBddK+MwAydAOta1vtKB24UmjdhzCurH4A0BtUry8ijmQPU4rHHdRtnhdTjU4YHA88cqAzVytrbx2dswW4uIomYZVXcKSM4yAeY0ratdp28jFY5o3ZeapIrEeoB0qN9rFujbJuSyglFBUkagh1wQelAd3Yu37W7Dm2mSURkByhzgnUfKulVRfg+HEV5+3H/derV+nQ/wC8T+Nf86A1ts7etbUKbmeOEOcLxsBnxwOv9K3oZVdQykMrAFWByCDyII5iq/7Tdxl2hJFKt0kLxqUIk1UqTxZGoIbPx08Klu7Gzo7SzhgSTjSJAokJHtc8nTQDOdOlAdalYUu4yeEOpbwDAn4ViXaluZO6E0Rk/wB2JF4/4c5oDbpStWfaUCNwvNGrH81nUH4E5oDapXhJlJIDAkYJAIJAPInwzXugFKUoBSlKAUpSgFKUoBSlKAV8ZgBknA8TX2qo/CAtJ3t7d1BMCO/egagMQvdu3gBhxk6AsPGgO721f2PP+3B/9iOo1+D19S8/ai+T1yt576O23fg2e1xHPcSMh4Y3EnAgl74LkHkAFQfdoNJf2J7uzWtpJJMpRrhwyowwwjVcKSOhJLHHhihkhHadvK91tP6EzslpDKkbqnF7ZJXvGIXViMlQPLPM1l7UY7ORbZtnwSLJCSp7q2miITAK68A1BGh5jJrS7U9h3FltI3qqTFJIs0b49lZAQSjEcvaXPmG05GrQsu1HZTxCQz8LEfkSrGXi+yFAPEc6aZzQHC4Pp+7zS30RM9vFNwvIpWQNHnhk1AIJULnx1qG9jOwY7uW6jlZxF3cZkjRuAS5Z+EMw9rhGCcAjOdeWKsveXeEHZE8l2q2jTxzLDFI47xgVIjBXpIQQSgzjPOoB2B7QijurhHkVWmSMRqSAXKs5IHicEHFAcHfuwTZe1v8AymUEYjljHETw55pnmVJU6Ho2KuvtS/sm7/4Y/vrVLdst/FNtORopFkVYkQlGBHEvFxLkdRmrT7Sd5bKTZEvBcxN9ITEIVwTIVdeIKOZx18OtAQXsr3ltrGyvZJznieNUiGC0p4H9kA9PEnQCpjuFuXsyeMbQMUUr3BLhAgEMBzgxrHyypGCx1JBIxnFV92cbFs763u7WR40unKNalsceUVyeHqV+0B016CsvZjva2zLuS1ujwQu5WUN+hlX2eP8AZOOE+49KA63b1sS3ia3mjiVJJ2k70qMcZAQgkfa1OtTncPZUFzsS1hnjWSMx6qw0yGbBHgR0I5VB+3XbdrOLRYZ45SpkZgjhsKypwk45ZxpUv7NN5bJNkxcdzEv0dAs3E4Xuyztw8WeWenj0oCpuy/ZffbTWHvHjBSUM0ZCuyAYKhseznqRrzxjnXS7YN1rawntzaqYxKrkjiY4aNkwwJOQTx+PStHso2nDDtVJJZFjRlkAZzwjLj2QSeWfOpD2/30T3FtGkis8KS94oYEoXMRUMOhIBOKAnW09sXX+r30mNj35tY2LjmMhe8ceYUs2fKqv7N95NmW6zJtCAStM2e/aMTezwgFGBy2M5ORnPEfCpzb73iDYNtNaskrwfRo5oxhjqyq8ZHNWIyB8a1tp7t7v3ts91DKlsQrFijhOBgMkPCTgHPMADyNASDs32RaxS3c9lMklrcdz3aqxLROne8aEHVR7a4B15joMzmqU/B+sJxLcT8LLA0arkggO4bIx9rhHFr+vV10MClKUApSlAKUpQClKUApSlAK19ofkpP2G+Rr7SgKW7Pv7SP7Z+dXhSlAaO3P8AZ5f2TVUdnf8AaHxpSgLR25yX1P8AStCw/KL60pQGGTmfU/Ossv1E/e+YpSgPezPyq+/+6a87Q/Kt6/0pSgMLf5fIVli/Jv8Au/M0pQGFedbG0fyrev8AQUpQHyP8mP8AjQ/8wVXG/n9pj1FKUMlw7N/Ix/sj5Vs0pQwKUpQClKUApSlAf//Z" vertex="1" parent="1">
          <mxGeometry x="670" y="360" width="120" height="120" as="geometry" />
        </mxCell>
        <mxCell id="FG6nhcTltKGhE41hHq1z-21" value="" style="shape=image;verticalLabelPosition=bottom;verticalAlign=top;imageAspect=0;aspect=fixed;image=data:image/jpeg,/9j/4AAQSkZJRgABAQAAAQABAAD/2wCEAAkGBxETERUTExMWFRUTFxkaFRUWFRcYGBgYGBUXFxgYHxkaHiggGBooGxgXITEhJSkrLi4uGB8zODMvOCgtLisBCgoKDg0OGxAQGzMmICUtMi0tLSstLS0rMDEtLS8tLy0tLS0tLS0vLS0rNTUvLS0tLS0uLS0vKy0vLS0tLS0vL//AABEIAOEA4QMBIgACEQEDEQH/xAAcAAEAAgMBAQEAAAAAAAAAAAAABgcDBAUCAQj/xABLEAACAQMBBQUEBAsECAcBAAABAgMABBEhBQYSMUEHE1FhcSKBkbEUMlKhCCMzQkNicoKSosE1ssLRFRY0U3Oz4fAXJGOTo7TDdP/EABoBAQACAwEAAAAAAAAAAAAAAAACAwEEBQb/xAAwEQACAgEDAgIIBgMAAAAAAAAAAQIRAwQhMRJBBRMiUXGBkaGxwTJCYeHw8RRi0f/aAAwDAQACEQMRAD8AvGlKUApSlAKUpQClKUApShNAK5m3tv21nH3lxKsa9AdWY+CqNWPoKg+8XaLLLMbPZMYmlGj3B/JR64JGdGx9o6eAaohtOwtLZjNfyPtG8YgcGWMYY8owPzv2cY/VFDJ094O21jlbK3AHSWc5OfKNT8291Rqy2vt/aTHuppiudWRhDEvlxLjPpqamuytzZLvgl2iqRxprDYRALHGCB9crqzaarnHyqcxBI1CRqqqowqqAqgeAA0A9KqllS4LI47Kpi7MtqOMy34DeHeTyfecV8fcHbkOsF9xY6C5nQ/Ajh++rXMpr5xnxqrzmT8tFSDfLeDZx/wDNI0kYOpmQMpHlNHy95PpVibk9pNpfkRkdxOf0TkEN48D6cXoQD5V1ixIIOoPMHUH3VX++PZxDKDLZqIZl1CL7EbkHIwBpG+eRGBnn4iccyfJGWL1FwUqsOy7tBaZvoN6StymVR20MnDzRvCUY/ewevOz6vKRSlKAUpSgFKUoBSlKAUpSgFKUoBSlKAUpSgFKUoBVa9tW8phgS0ikCSXRxI2cFIhgNnGqhiQM+AfFS7fbb30KxmuNCyLiMHkZGIVAfLiIz5A1RW7OwBch9obQkdo2c4GfxlxJ116IDkaY5dANRlHRg3otLW3Fps5ZZWP5adIyGc8iQD7WvTTQaDxqQ9mGyknzfyAHgZkt0OvBjR5COjk6DwA861P8AWF0Xgto47eMcljQZ95I1Pure7H3b6Pd55G7fH/tx5++q8jqJOCtk/kkz6Vr3dxHEhklkSJB+dIwVfia8314kMUk0n1IkZ29FUsffpVbbM3bn2u302/kdIm1t4IyBhOmCQQAfHGW55AwK1opPdlzdbIsaw2hDOvHDKkq5xxRuGGfDTka2a4W7m6VrZM7QBwZAAwZyw9kkg4PXU13ai6vYkr7ivFxOkaNJIwRI1LOx0AA5mvdYL6zjmjMcqh0bHEp5HBBAPiMgaUQZSvaDtnZ9zKtzZtIk6kByUKB8fVkBzlXXA5gZGPCro7Nd5/p9ikjkd9Ge7mx9tQPax04lIb3kdK5e1dz7CdOB7dF00aNQjr6FR9xyPKo52WW0lhtW4sHbiWWISRty4uBvZbHQ8LMD5pW1jmnsjXnFrcuGlKVaVilKUApSlAKUpQClKUApSlAKUpQClKUApSod2k77ps6DC4a5lB7pDyXoZGH2R4dTp4kARvt72tGLaK2DjvWkDsg5hFVwGPgOIjHjg+FRiSTEFrEPqxW8X8TorufUk/dUK2lBK6NdXDlpZnB9r6zZ5sfDTGB0AHkK7FptC6nVPo9pJKI440ZgrMOJI1Q6qMDUcs5rCknwWzxTx0pLlWdV2wCfAZqb9l1qU2bEx5zGSU/vueH+QLVaW20+8LwuhjlwwKMCDnHLUAg+RFWzuHMG2balekSqfJk9hh68Smqs79Ezi5OttCyjmieKQcSSKVcZIyCMHUais0aBQABgAAADkANAK9UrVLz5MrcDFQCwU8IPVgDgfGtTY+0FuII5l0EqBsHmCRqp8wcg+lcrae/1laztbzM6ugUk92xX2hkark/dUb3P3jRtpy29qTJazccwyrL3Mh9qQDOvds3kNW087Oh1ZDq3J5tK+SCF5pCQkSlmIGSAOenWthWBGRyPKtfaVms0MkL/AFZUZG9GUqfnUV7PNtOVewuDi5s/YOfz4xorjxwMe4qetRStWSvcke8G0DbQGcjKI6d55Rs6q7e4HPuqO7cbg25sqVf0nfRsR1BQgev5TNc/ezfO545rEbNkkDBo+LLkOrDHEAsZGMHPOo1vVFewWOze+JS4hZwhVsuqqEMeSPzwABpnlVuONNMrk7TR+iKVBuzHftdoRGOXC3UQ9sDQSLy7xR8x0PkRU5rZNcUpSgFKUoBSlKAUpSgFKUoBSlKAUpSgOdvDtmKztpLiU4SMZx1YnRVHmWIA9a/Okcst/dSXlxrxNovTT6qD9RRj1PqalnbXt1ri7j2fEfZiIaTHWVhkZ8lQ5/e8q5EcSxoqLyAx/wBfU1r6jJ0qlyzseEaNZZ+ZP8Mfm/59jnS2H0vaNtakkK5AYjnw+0z48+FKnm9+0do2s1vbbPSJI2ysMCorM4jVWdiWwqIOIDmD1J1qBvffRb61uj9WNxx4+zkhvfws3wq5Lyx7y7t7lSCsaTLodCJRGVYeI9j+aoRlUIlWuTepnfN/L+is96BNfrDeRWzC7glaC7iRSSGQcSk9eHmM/rAa4qa9m1jcw2fBcR92xlkZUJBIVyG1wTj2i2lSG2sY43kkUYaYq0nmyqEB9cAfCtmsSyWqNZQp2KUpVZM5+09iWtxjv4I5SORdASPQ8xXvZmyLe3BEEMcQb63AoXPqRqffW7Ss2+DFCoXv7u7KzJfWeVu7cch+lQfm4/OIGdOoJHhiXbPvopolkjPErFsH9l2Q/eprxtDaEMCd5NIkaD852Cj0GeZ8hWU2mYdNHL3Q3oivoA6ezIuBLFnVG/qp6H+oNRftZk/G2KdS8jfwqn+dY9ybdbja1zfQIy2xUqjcLKsrvwcRGQNMqxI8SOtavaPOH2nCn+4gZj5GRiPkBUmkm/Z9izTpyyQX+y+pEbky2k6XdueFkYHTkD1BHVWGQR5+dfovdTb8d9ax3EegcYZeqONGQ+h+IwetUXNGGUqRkEYNdLsd24bS/eykb8XcnC55CUD2D+8vs+oUVPT5OpdL7Gx4rpFin5keH9f3L5pSlbJyBSlKAUpSgFKUoBSlKAUpSgFa2071YIZJn+rEjO3ooJ/pWzUD7atpd1st1HO4dIh6El2/lRh76ApzYLtPNNdSfXdmJ6+0542x5DIA8q7BNaexYuC2QdW9o/vHPyxW3XMyy6ptntdDi8rTwj+lv2vc1toWglQodPA+B6Gs27O/txYKLeeLvY10j9rhZR4BsEMngNMePQe68SxhgQQCD41nHk6VTVop1mgWd9SdSJhufvFe7Su+8RVgsoMiRdGeR2Q8KlsaYyraYxgc81Oqq7sPv+CS5tG0JxIvmUPdv80q0nGtXZEk9jzUL7nylcqba4ju0t5BhZ0zA/RnUnvIz+tw8LDxy3hXVquiR9kUgcsnoM/94qKx7/2Ado5Xe3lQ4eOaNlKn1GVI886jWuvvFs554x3chiljYPEwJ4eNeQcD6yHkR51D5t49lXmYtpQrBcREq6ygjhYc+CZdQvUZI0PXnU4xTIttHLh7mJnFrt+KCB3ZxEURinGeIgMzaanwHx1rYubDZFuyT313JevIoePvCZFZSSAVRBjhJB5nGleZNz9hPql6FHlcxsP5gTXYtdz9lXIiUSm4+ixiPCzD6vG7rx93jXJbw5VY2v1I0zzu9vTPtCfgtou4tIMd7KwHE2PqxqB7KZ64yQPDSoS199JvLq6/NeThjP8A6aaKfeoU++px2g7UisLEW1uqxvODHEiADhU/XfA9cZ8WFQbZlr3cSp1A19Tqf+/KqsjSjt3Ol4Zics/U/wAv1eyNquHvCjI0c8Z4XQjDeDA8SH3EV3K09rw8ULjyyPUa/wBKqxS6Zpna1uLzcEo/pa9x+hN39prc2sNwvKaNWx4EjUe45HuroVXPYVtDvNnGMnJglZR+y2JB97N8KsaumeLFKUoBSlKAUpSgFKUoBSlKAVUf4Qs/4m0j8ZJH/hQL/jq3Kpf8IbPeWPhwz/OCgI+q4VV+yoHwFK+sda+VyD34pWG5uUjHE5AHz9B1riy7SmnPBApA6t1955L86sx4pTexp6rW4dOvTe/q7m6m1RZ7QguV5qfxqg80I4WyOpKk6eKir8EiuqyIQyuAVYciCMg/CvzzHu57J4nPGfDkD551Nd/cnfq4ssWcsL3EYbEaJrKpY/VQfpFJOQvPXQ9K3p6eUYo8pLVxzZZTSq+xaO8mxI7uAxMSrAhopF+tHIuqup8Qa5u7W8Ts5s7wCO8jHok69JYz1z1XmPjjAvaPs3OJJJIW+zNDKpHkfZIqK79b4bNucRiKWYx6x3MLCMxk9UY6kcs5GMgdRkUxi+GiTkuUWvXF29upZXZ4p4QzgY41JR8DkOJSCR5HNVjsDtRuYcJOv0hByc4SXHTJGVb36+dSf/xcseHJjnBxnhKx5+PHinlzT2MdcWjeTsv2YDkpI3kZnx9xBrryNY7Mt2YKkEYOcKPadsch1dzgDWoRtHtQuZEZrSzcKASZpFLqo8TwjgHvaq9urm6vJO8kaSdx1PIDwGMKg8hipKEn+J7BPeoK2be1t4Hubz6VKpwThF6KgyAo8SM5PmTUghlV1DKcg8jXKspI54zDIgRk04QMY8xnkfKucDLaSa6of4W/yarM+m6oqUTY8N8S8ibx5Fs37yU18YZGPGsVpcrIoZTofuPgazVzWqZ6yMlJWuGSD8Hqch72I8uGFgPMGZW/w/CroqkewL/a7z/hp/zHq7q654OSp0KUpQwKUpQClKUApSlAKUpQCqk/CFg/EWknhI6fxJxf/nVt1Bu2bZvfbKkIGTAySj908LH+B2oCrIJOJVbxAPxGa5u1tsd0eBRlsak8hn51m2DNxQL+rlT7jp92K5e3B3dwkmMg4OPNdCPhitDFCLydMj1Ws1ORaRZcfLr5/ue7PZUkx7yYkA8hyJH+EV2g8cY4VAAH5or5eNmPiU6HB06g1za7UYqCpHiZ5JZX1SZtS3rHlp860ZYskNkh1IKupwwIOQQfEHWslKw9+TC24JXsztPvoVC3EUd2o/PxwSY/WwCD8BULXbPcQGbgDPPM+eg8Ty6a6DzrZrh7d/2cp1SfP7roSPvWtXPjVL1WdTQaiUJSktpKLr+eyxLvHDKfxlsBn86NsN8sH31ILS+urIqsMsTozDhjlVHwWPPhIyvmVIqvEYgggkEciOdSrYlrdXEkcHEGlkI7sPwgrj28s+MjRTpqflVLhVJcGwtQssZPKrfZql8aq79529r7wXF3MsN1JxRoxXu7dSqF1GdV1LHXGenTGtcvena0sDJHARGnBnAUcWckag6jQD11qW/+Fl8kJlVojIOLMKcQHtAgkSnHt4PUAZxrUG/1TnaR4+5m7yPHeKSpK5GRnOOY1508q2r+BJatQxyjj2bfN0622v8AoybKuGdg7HLOntHxIbhz91duWcNGyyDIwdeowNK5GzbYxOY2DKyLjhYcLasWJx762doviM+eg99bmP0YHJzvry2bW66ERMftNp7gB867DtgE+GtYbGDgjVfAa+vM/fmsO2ZuGFz4jA9W0/rXGk+uftZ7jEv8fTK/yq/uS/8AB5tzxXsp5EQqPX8azfNfjVzVXvYds4xbM7wjBuJXf90YjX+4T76sKumeMFKUoBSlKAUpSgFKUoBSlKAVgvrVZYnicZWRWVh5MCD86z0oD8u7Nge2uZrST60bsuvUocZ9CuGHlWfeC34oSeqe17uv3fKpj247vGKaPaMQ0Yqk2OjjSNj5FRwe5fGo1bTrIgYcmGo+4itPOuiamj0PhuRZ9PLTy93sf/H9jR2LLx2/D1TK/DUfMfCsVeNgexNLF8P3T/kRWV1wSPA11YS6opnlMsHDJKLPNeJZAuM9SAPUnFe6w3CZMf8AxE/vVlkVyZyMaVzdq23EORIYYbHMEHKnl6j312b76593yrVfODjnjT1rE42qJY5uLtGrutu2Z5CEXu1T68p9ph+qudOL3DHwBme2d1o1twbZeCaA94jj67MuCct1OmR5gVwt196Bar3M0ZC8RPeLq2SdSR+d6j4VPrDaEUy8UTq48jqPUcwfWo44Qqu5LNlydSfZfA7G7u1LS9trO/nnMD2zspHe93GZXHAVYHRs8wPA1wgB/pLaTAfp41/hgjH9a0d1YoYdpyWc8aPb3hE0SOoKiVMnkeuje4KOtaW2ts939LeM/jbq7n7vyVCIjJ6Dg088VCG0tyeX0obdzjbz3azXWVA4YAUDDmzZ9rXqF5Dz4q5HBxzxp0X2m93L/vzrLGgVQByAr3u8nEZJT+ccL6DX/L4VHUz6cb9bNnwzB52ojHsvsdquHtwPLLFbRDLuygDxZzwoPia6dxfxJnidcjpkZ9MV3exTYn0m8kvZMEQaINPyjjnjwVOvi3lXP0+NuXUz0Xi2qjHF5cXu+fYXRsbZy29vFAn1YUVB+6AM/wBa3KUrePMilKUApSlAKUpQClKUApSlAKUpQGntjZkVzBJBKOKOVSrD5EeBBwQfECvzdfWEuzLx7Wf6ucq/RlP1ZB5HkfAg+Ffp2oxv9udFtG34CQkyZMMuPqt9k+KHqPfzFRlFSVMtw5pYZqceUUDIeG+U9HA+8Ef0FbN4MOa5V9Z3FtdLDcKUkhZRg/Z4sgg/nKdcGuxtAe37hV+BVCvUa+tmsmZzXfc1q0xeqSgOhEi5B6YYZ18K3CitoxYDxUgH7xWpf2ECxs4Z8rgkEjUZGenPGanK+xRDpvc3b+6j4z7a9Oo8K1Gv4x+d9xq79m9k+yUAJieXIBzJK5z7lIH3V3bTcnZkf1LK3B8TEpPxIJqDystWFH5sm2nARhjn1/61pC8RG4oZGRhyw2D8Qc1+so9kWy/VgiHpGg/pXp9l255wxH1jU/0qDk2TjBLg/LFzvDcyd0WfLwOHjkwA4III1GhGQDqOlYo9onm2WbGB0AGSce8kk+tW72w7v2sdpJNHbxRujxe2iKpw0iqRoP1qrjbNvCIW4FUMMEcIGeeuo8qlFN2zE3FVGuTjXG1OIFRgZ565NSTdncval9GvdJ3UHSSQ92rDOpAA4n9QMedWDsLZUV9uyECL3ixSBW4Rxd5C7cJzz14QPQ1191e8vNiW/DNKh7pQ5g4BK4ReEorvohJXn94quXpclkG4J9OxyN3eyOwiYLdz/SJSNIg3dKPMKrcbepOPKuJvNsX/AEDfW95bM/0aRuGRCSxAGrpnmwK5Zc6gqdasDdaB7Yd3FstoVJyztPC8jn7TniJY+pNYe2GwEuyZz1i4ZR5cDAt/JxUBNI3DAMDkEAgjkQdQa9VD+ybahuNlQE6tEDE2f/TPCv8ALwn31MKGBSlKAUpSgFKUoBSlKAUpSgFKUoBSlKAp38ISID6FJjUGUE9f0TAfcfjUJ2kfb939TVnduOw57i1heGNpO4di6oMtwMuMhRqcEDl41TC7WJOJBgjQkDljxHSrcckrTKssG6aN+sN6nFG48VPyrIjgjIOR5V9YZGKtKFsz9Gbo3fe2NrJ9uCM/yDP3116hPY3ed5smEdYTJGfLhckfylam1apuClKUBX/a8mdn3PksZ+EqH+lUvdDMbfsn5VefahFxWF55QM38I4v8NUK99Hw4zkkY0B8KsxtbleRN1RbnYXtBf9HzRt+jnbA8nRW+fFWfsim4dl91lgElmQFThgBKx0PjhqgnZTsq/ue/jtrn6NEOAyyd3xEt7QCoTyOM51HSpXf9j0iQP9Gv5zLqyoWMcbtnXPCdCfHxxmqy0mUOzFVuIXN6D5z8Y+Dgise++0UXZ9wWJKrBIDxYyxKFVGmmSTj31Wthu3tG3xnYvfSD9K17xZPjw8eBXVud1NtbTZEu1SztVYFo1dWY464UtxN4cRAHPBoCUditk0eyoy36V5JB6FuFT7woPvqd1hsrVIo0ijUKkahUUcgqjAHwFZqGBSlKAUpSgFKUoBSlKAUpSgFKUoBSlKAVHt59y7G+H4+IcfSVPYkH7w+sPJsjyqQ0oChNv9kN9AS1o4uE6DIjlA8wTwt7iPSonNYbRibhktJ8jxt5dfQquD7q/U9Kym1wYaT5Kk7AL/2Ly3OQySrLwnTHGvAwwfAxa+tW3VQ7KH0HeiWLOI71Cyjzcd4P/kjlHvq3qwZFKUoCL79x8Vrcjxtpf+W9Vrtndu2/0Es0UKLKIoZWkC+2ccJkyx15FtOVWtvZFmCQfaikHxQ/51CtjMjbBjEjBVazKksQB+TK8zQyTDs8dDsuzKAAdxHkD7QUBvfkGpDVfdht2z7KVTn8VLIoz4Eh8e4uRVg0MClKUApSlAKUpQClKUApSlAKUpQClKUApSlAKUpQClKUApSlAVV23WrQtZ7RjHt20oDY6gMJEGfDKsv79WTszacNwgkhkSRWAOVYHGfHB0NYd49ixXltJbS54JBzGOJSCGVhkEZBAPuqprvsRnRuO2vFz0Lo0bfxoT8qAuuvhOKpSLcbeWLRL4Ef/wBk5HweOsjbn70Po16vvuXH92KgLT2rKjrwg+OT0wRjnVG9nG4Ee0O+76d0W2cJwIASc51DNkKNCNBXbPZJtSf/AGq/Qg8x3k8w+DhRVkbj7nQbNhaOMl3kIMkjYBYgYUADRVGTgeZ8aGTp7A2LBZwLBAvDGmeuSSdSxJ5knrXRpShgUpSgFKUoBSlKAUpSgFKUoBSlKAUpSgFKUoBSq27ZtkotnJepJNHMjRDKTyqpDSLGQUDcPJuYAOQKjvYns/6U8008s7tbvEYwbibhB9pslQ2G1A0OR5UBddK+MwAydAOta1vtKB24UmjdhzCurH4A0BtUry8ijmQPU4rHHdRtnhdTjU4YHA88cqAzVytrbx2dswW4uIomYZVXcKSM4yAeY0ratdp28jFY5o3ZeapIrEeoB0qN9rFujbJuSyglFBUkagh1wQelAd3Yu37W7Dm2mSURkByhzgnUfKulVRfg+HEV5+3H/derV+nQ/wC8T+Nf86A1ts7etbUKbmeOEOcLxsBnxwOv9K3oZVdQykMrAFWByCDyII5iq/7Tdxl2hJFKt0kLxqUIk1UqTxZGoIbPx08Klu7Gzo7SzhgSTjSJAokJHtc8nTQDOdOlAdalYUu4yeEOpbwDAn4ViXaluZO6E0Rk/wB2JF4/4c5oDbpStWfaUCNwvNGrH81nUH4E5oDapXhJlJIDAkYJAIJAPInwzXugFKUoBSlKAUpSgFKUoBSlKAV8ZgBknA8TX2qo/CAtJ3t7d1BMCO/egagMQvdu3gBhxk6AsPGgO721f2PP+3B/9iOo1+D19S8/ai+T1yt576O23fg2e1xHPcSMh4Y3EnAgl74LkHkAFQfdoNJf2J7uzWtpJJMpRrhwyowwwjVcKSOhJLHHhihkhHadvK91tP6EzslpDKkbqnF7ZJXvGIXViMlQPLPM1l7UY7ORbZtnwSLJCSp7q2miITAK68A1BGh5jJrS7U9h3FltI3qqTFJIs0b49lZAQSjEcvaXPmG05GrQsu1HZTxCQz8LEfkSrGXi+yFAPEc6aZzQHC4Pp+7zS30RM9vFNwvIpWQNHnhk1AIJULnx1qG9jOwY7uW6jlZxF3cZkjRuAS5Z+EMw9rhGCcAjOdeWKsveXeEHZE8l2q2jTxzLDFI47xgVIjBXpIQQSgzjPOoB2B7QijurhHkVWmSMRqSAXKs5IHicEHFAcHfuwTZe1v8AymUEYjljHETw55pnmVJU6Ho2KuvtS/sm7/4Y/vrVLdst/FNtORopFkVYkQlGBHEvFxLkdRmrT7Sd5bKTZEvBcxN9ITEIVwTIVdeIKOZx18OtAQXsr3ltrGyvZJznieNUiGC0p4H9kA9PEnQCpjuFuXsyeMbQMUUr3BLhAgEMBzgxrHyypGCx1JBIxnFV92cbFs763u7WR40unKNalsceUVyeHqV+0B016CsvZjva2zLuS1ujwQu5WUN+hlX2eP8AZOOE+49KA63b1sS3ia3mjiVJJ2k70qMcZAQgkfa1OtTncPZUFzsS1hnjWSMx6qw0yGbBHgR0I5VB+3XbdrOLRYZ45SpkZgjhsKypwk45ZxpUv7NN5bJNkxcdzEv0dAs3E4Xuyztw8WeWenj0oCpuy/ZffbTWHvHjBSUM0ZCuyAYKhseznqRrzxjnXS7YN1rawntzaqYxKrkjiY4aNkwwJOQTx+PStHso2nDDtVJJZFjRlkAZzwjLj2QSeWfOpD2/30T3FtGkis8KS94oYEoXMRUMOhIBOKAnW09sXX+r30mNj35tY2LjmMhe8ceYUs2fKqv7N95NmW6zJtCAStM2e/aMTezwgFGBy2M5ORnPEfCpzb73iDYNtNaskrwfRo5oxhjqyq8ZHNWIyB8a1tp7t7v3ts91DKlsQrFijhOBgMkPCTgHPMADyNASDs32RaxS3c9lMklrcdz3aqxLROne8aEHVR7a4B15joMzmqU/B+sJxLcT8LLA0arkggO4bIx9rhHFr+vV10MClKUApSlAKUpQClKUApSlAK19ofkpP2G+Rr7SgKW7Pv7SP7Z+dXhSlAaO3P8AZ5f2TVUdnf8AaHxpSgLR25yX1P8AStCw/KL60pQGGTmfU/Ossv1E/e+YpSgPezPyq+/+6a87Q/Kt6/0pSgMLf5fIVli/Jv8Au/M0pQGFedbG0fyrev8AQUpQHyP8mP8AjQ/8wVXG/n9pj1FKUMlw7N/Ix/sj5Vs0pQwKUpQClKUApSlAf//Z" vertex="1" parent="1">
          <mxGeometry x="830" y="360" width="120" height="120" as="geometry" />
        </mxCell>
        <mxCell id="FG6nhcTltKGhE41hHq1z-22" value="" style="shape=image;verticalLabelPosition=bottom;verticalAlign=top;imageAspect=0;aspect=fixed;image=data:image/jpeg,/9j/4AAQSkZJRgABAQAAAQABAAD/2wCEAAkGBxETERUTExMWFRUTFxkaFRUWFRcYGBgYGBUXFxgYHxkaHiggGBooGxgXITEhJSkrLi4uGB8zODMvOCgtLisBCgoKDg0OGxAQGzMmICUtMi0tLSstLS0rMDEtLS8tLy0tLS0tLS0vLS0rNTUvLS0tLS0uLS0vKy0vLS0tLS0vL//AABEIAOEA4QMBIgACEQEDEQH/xAAcAAEAAgMBAQEAAAAAAAAAAAAABgcDBAUCAQj/xABLEAACAQMBBQUEBAsECAcBAAABAgMABBEhBQYSMUEHE1FhcSKBkbEUMlKhCCMzQkNicoKSosE1ssLRFRY0U3Oz4fAXJGOTo7TDdP/EABoBAQACAwEAAAAAAAAAAAAAAAACAwEEBQb/xAAwEQACAgEDAgIIBgMAAAAAAAAAAQIRAwQhMRJBBRMiUXGBkaGxwTJCYeHw8RRi0f/aAAwDAQACEQMRAD8AvGlKUApSlAKUpQClKUApShNAK5m3tv21nH3lxKsa9AdWY+CqNWPoKg+8XaLLLMbPZMYmlGj3B/JR64JGdGx9o6eAaohtOwtLZjNfyPtG8YgcGWMYY8owPzv2cY/VFDJ094O21jlbK3AHSWc5OfKNT8291Rqy2vt/aTHuppiudWRhDEvlxLjPpqamuytzZLvgl2iqRxprDYRALHGCB9crqzaarnHyqcxBI1CRqqqowqqAqgeAA0A9KqllS4LI47Kpi7MtqOMy34DeHeTyfecV8fcHbkOsF9xY6C5nQ/Ajh++rXMpr5xnxqrzmT8tFSDfLeDZx/wDNI0kYOpmQMpHlNHy95PpVibk9pNpfkRkdxOf0TkEN48D6cXoQD5V1ixIIOoPMHUH3VX++PZxDKDLZqIZl1CL7EbkHIwBpG+eRGBnn4iccyfJGWL1FwUqsOy7tBaZvoN6StymVR20MnDzRvCUY/ewevOz6vKRSlKAUpSgFKUoBSlKAUpSgFKUoBSlKAUpSgFKUoBVa9tW8phgS0ikCSXRxI2cFIhgNnGqhiQM+AfFS7fbb30KxmuNCyLiMHkZGIVAfLiIz5A1RW7OwBch9obQkdo2c4GfxlxJ116IDkaY5dANRlHRg3otLW3Fps5ZZWP5adIyGc8iQD7WvTTQaDxqQ9mGyknzfyAHgZkt0OvBjR5COjk6DwA861P8AWF0Xgto47eMcljQZ95I1Pure7H3b6Pd55G7fH/tx5++q8jqJOCtk/kkz6Vr3dxHEhklkSJB+dIwVfia8314kMUk0n1IkZ29FUsffpVbbM3bn2u302/kdIm1t4IyBhOmCQQAfHGW55AwK1opPdlzdbIsaw2hDOvHDKkq5xxRuGGfDTka2a4W7m6VrZM7QBwZAAwZyw9kkg4PXU13ai6vYkr7ivFxOkaNJIwRI1LOx0AA5mvdYL6zjmjMcqh0bHEp5HBBAPiMgaUQZSvaDtnZ9zKtzZtIk6kByUKB8fVkBzlXXA5gZGPCro7Nd5/p9ikjkd9Ge7mx9tQPax04lIb3kdK5e1dz7CdOB7dF00aNQjr6FR9xyPKo52WW0lhtW4sHbiWWISRty4uBvZbHQ8LMD5pW1jmnsjXnFrcuGlKVaVilKUApSlAKUpQClKUApSlAKUpQClKUApSod2k77ps6DC4a5lB7pDyXoZGH2R4dTp4kARvt72tGLaK2DjvWkDsg5hFVwGPgOIjHjg+FRiSTEFrEPqxW8X8TorufUk/dUK2lBK6NdXDlpZnB9r6zZ5sfDTGB0AHkK7FptC6nVPo9pJKI440ZgrMOJI1Q6qMDUcs5rCknwWzxTx0pLlWdV2wCfAZqb9l1qU2bEx5zGSU/vueH+QLVaW20+8LwuhjlwwKMCDnHLUAg+RFWzuHMG2balekSqfJk9hh68Smqs79Ezi5OttCyjmieKQcSSKVcZIyCMHUais0aBQABgAAADkANAK9UrVLz5MrcDFQCwU8IPVgDgfGtTY+0FuII5l0EqBsHmCRqp8wcg+lcrae/1laztbzM6ugUk92xX2hkark/dUb3P3jRtpy29qTJazccwyrL3Mh9qQDOvds3kNW087Oh1ZDq3J5tK+SCF5pCQkSlmIGSAOenWthWBGRyPKtfaVms0MkL/AFZUZG9GUqfnUV7PNtOVewuDi5s/YOfz4xorjxwMe4qetRStWSvcke8G0DbQGcjKI6d55Rs6q7e4HPuqO7cbg25sqVf0nfRsR1BQgev5TNc/ezfO545rEbNkkDBo+LLkOrDHEAsZGMHPOo1vVFewWOze+JS4hZwhVsuqqEMeSPzwABpnlVuONNMrk7TR+iKVBuzHftdoRGOXC3UQ9sDQSLy7xR8x0PkRU5rZNcUpSgFKUoBSlKAUpSgFKUoBSlKAUpSgOdvDtmKztpLiU4SMZx1YnRVHmWIA9a/Okcst/dSXlxrxNovTT6qD9RRj1PqalnbXt1ri7j2fEfZiIaTHWVhkZ8lQ5/e8q5EcSxoqLyAx/wBfU1r6jJ0qlyzseEaNZZ+ZP8Mfm/59jnS2H0vaNtakkK5AYjnw+0z48+FKnm9+0do2s1vbbPSJI2ysMCorM4jVWdiWwqIOIDmD1J1qBvffRb61uj9WNxx4+zkhvfws3wq5Lyx7y7t7lSCsaTLodCJRGVYeI9j+aoRlUIlWuTepnfN/L+is96BNfrDeRWzC7glaC7iRSSGQcSk9eHmM/rAa4qa9m1jcw2fBcR92xlkZUJBIVyG1wTj2i2lSG2sY43kkUYaYq0nmyqEB9cAfCtmsSyWqNZQp2KUpVZM5+09iWtxjv4I5SORdASPQ8xXvZmyLe3BEEMcQb63AoXPqRqffW7Ss2+DFCoXv7u7KzJfWeVu7cch+lQfm4/OIGdOoJHhiXbPvopolkjPErFsH9l2Q/eprxtDaEMCd5NIkaD852Cj0GeZ8hWU2mYdNHL3Q3oivoA6ezIuBLFnVG/qp6H+oNRftZk/G2KdS8jfwqn+dY9ybdbja1zfQIy2xUqjcLKsrvwcRGQNMqxI8SOtavaPOH2nCn+4gZj5GRiPkBUmkm/Z9izTpyyQX+y+pEbky2k6XdueFkYHTkD1BHVWGQR5+dfovdTb8d9ax3EegcYZeqONGQ+h+IwetUXNGGUqRkEYNdLsd24bS/eykb8XcnC55CUD2D+8vs+oUVPT5OpdL7Gx4rpFin5keH9f3L5pSlbJyBSlKAUpSgFKUoBSlKAUpSgFa2071YIZJn+rEjO3ooJ/pWzUD7atpd1st1HO4dIh6El2/lRh76ApzYLtPNNdSfXdmJ6+0542x5DIA8q7BNaexYuC2QdW9o/vHPyxW3XMyy6ptntdDi8rTwj+lv2vc1toWglQodPA+B6Gs27O/txYKLeeLvY10j9rhZR4BsEMngNMePQe68SxhgQQCD41nHk6VTVop1mgWd9SdSJhufvFe7Su+8RVgsoMiRdGeR2Q8KlsaYyraYxgc81Oqq7sPv+CS5tG0JxIvmUPdv80q0nGtXZEk9jzUL7nylcqba4ju0t5BhZ0zA/RnUnvIz+tw8LDxy3hXVquiR9kUgcsnoM/94qKx7/2Ado5Xe3lQ4eOaNlKn1GVI886jWuvvFs554x3chiljYPEwJ4eNeQcD6yHkR51D5t49lXmYtpQrBcREq6ygjhYc+CZdQvUZI0PXnU4xTIttHLh7mJnFrt+KCB3ZxEURinGeIgMzaanwHx1rYubDZFuyT313JevIoePvCZFZSSAVRBjhJB5nGleZNz9hPql6FHlcxsP5gTXYtdz9lXIiUSm4+ixiPCzD6vG7rx93jXJbw5VY2v1I0zzu9vTPtCfgtou4tIMd7KwHE2PqxqB7KZ64yQPDSoS199JvLq6/NeThjP8A6aaKfeoU++px2g7UisLEW1uqxvODHEiADhU/XfA9cZ8WFQbZlr3cSp1A19Tqf+/KqsjSjt3Ol4Zics/U/wAv1eyNquHvCjI0c8Z4XQjDeDA8SH3EV3K09rw8ULjyyPUa/wBKqxS6Zpna1uLzcEo/pa9x+hN39prc2sNwvKaNWx4EjUe45HuroVXPYVtDvNnGMnJglZR+y2JB97N8KsaumeLFKUoBSlKAUpSgFKUoBSlKAVUf4Qs/4m0j8ZJH/hQL/jq3Kpf8IbPeWPhwz/OCgI+q4VV+yoHwFK+sda+VyD34pWG5uUjHE5AHz9B1riy7SmnPBApA6t1955L86sx4pTexp6rW4dOvTe/q7m6m1RZ7QguV5qfxqg80I4WyOpKk6eKir8EiuqyIQyuAVYciCMg/CvzzHu57J4nPGfDkD551Nd/cnfq4ssWcsL3EYbEaJrKpY/VQfpFJOQvPXQ9K3p6eUYo8pLVxzZZTSq+xaO8mxI7uAxMSrAhopF+tHIuqup8Qa5u7W8Ts5s7wCO8jHok69JYz1z1XmPjjAvaPs3OJJJIW+zNDKpHkfZIqK79b4bNucRiKWYx6x3MLCMxk9UY6kcs5GMgdRkUxi+GiTkuUWvXF29upZXZ4p4QzgY41JR8DkOJSCR5HNVjsDtRuYcJOv0hByc4SXHTJGVb36+dSf/xcseHJjnBxnhKx5+PHinlzT2MdcWjeTsv2YDkpI3kZnx9xBrryNY7Mt2YKkEYOcKPadsch1dzgDWoRtHtQuZEZrSzcKASZpFLqo8TwjgHvaq9urm6vJO8kaSdx1PIDwGMKg8hipKEn+J7BPeoK2be1t4Hubz6VKpwThF6KgyAo8SM5PmTUghlV1DKcg8jXKspI54zDIgRk04QMY8xnkfKucDLaSa6of4W/yarM+m6oqUTY8N8S8ibx5Fs37yU18YZGPGsVpcrIoZTofuPgazVzWqZ6yMlJWuGSD8Hqch72I8uGFgPMGZW/w/CroqkewL/a7z/hp/zHq7q654OSp0KUpQwKUpQClKUApSlAKUpQCqk/CFg/EWknhI6fxJxf/nVt1Bu2bZvfbKkIGTAySj908LH+B2oCrIJOJVbxAPxGa5u1tsd0eBRlsak8hn51m2DNxQL+rlT7jp92K5e3B3dwkmMg4OPNdCPhitDFCLydMj1Ws1ORaRZcfLr5/ue7PZUkx7yYkA8hyJH+EV2g8cY4VAAH5or5eNmPiU6HB06g1za7UYqCpHiZ5JZX1SZtS3rHlp860ZYskNkh1IKupwwIOQQfEHWslKw9+TC24JXsztPvoVC3EUd2o/PxwSY/WwCD8BULXbPcQGbgDPPM+eg8Ty6a6DzrZrh7d/2cp1SfP7roSPvWtXPjVL1WdTQaiUJSktpKLr+eyxLvHDKfxlsBn86NsN8sH31ILS+urIqsMsTozDhjlVHwWPPhIyvmVIqvEYgggkEciOdSrYlrdXEkcHEGlkI7sPwgrj28s+MjRTpqflVLhVJcGwtQssZPKrfZql8aq79529r7wXF3MsN1JxRoxXu7dSqF1GdV1LHXGenTGtcvena0sDJHARGnBnAUcWckag6jQD11qW/+Fl8kJlVojIOLMKcQHtAgkSnHt4PUAZxrUG/1TnaR4+5m7yPHeKSpK5GRnOOY1508q2r+BJatQxyjj2bfN0622v8AoybKuGdg7HLOntHxIbhz91duWcNGyyDIwdeowNK5GzbYxOY2DKyLjhYcLasWJx762doviM+eg99bmP0YHJzvry2bW66ERMftNp7gB867DtgE+GtYbGDgjVfAa+vM/fmsO2ZuGFz4jA9W0/rXGk+uftZ7jEv8fTK/yq/uS/8AB5tzxXsp5EQqPX8azfNfjVzVXvYds4xbM7wjBuJXf90YjX+4T76sKumeMFKUoBSlKAUpSgFKUoBSlKAVgvrVZYnicZWRWVh5MCD86z0oD8u7Nge2uZrST60bsuvUocZ9CuGHlWfeC34oSeqe17uv3fKpj247vGKaPaMQ0Yqk2OjjSNj5FRwe5fGo1bTrIgYcmGo+4itPOuiamj0PhuRZ9PLTy93sf/H9jR2LLx2/D1TK/DUfMfCsVeNgexNLF8P3T/kRWV1wSPA11YS6opnlMsHDJKLPNeJZAuM9SAPUnFe6w3CZMf8AxE/vVlkVyZyMaVzdq23EORIYYbHMEHKnl6j312b76593yrVfODjnjT1rE42qJY5uLtGrutu2Z5CEXu1T68p9ph+qudOL3DHwBme2d1o1twbZeCaA94jj67MuCct1OmR5gVwt196Bar3M0ZC8RPeLq2SdSR+d6j4VPrDaEUy8UTq48jqPUcwfWo44Qqu5LNlydSfZfA7G7u1LS9trO/nnMD2zspHe93GZXHAVYHRs8wPA1wgB/pLaTAfp41/hgjH9a0d1YoYdpyWc8aPb3hE0SOoKiVMnkeuje4KOtaW2ts939LeM/jbq7n7vyVCIjJ6Dg088VCG0tyeX0obdzjbz3azXWVA4YAUDDmzZ9rXqF5Dz4q5HBxzxp0X2m93L/vzrLGgVQByAr3u8nEZJT+ccL6DX/L4VHUz6cb9bNnwzB52ojHsvsdquHtwPLLFbRDLuygDxZzwoPia6dxfxJnidcjpkZ9MV3exTYn0m8kvZMEQaINPyjjnjwVOvi3lXP0+NuXUz0Xi2qjHF5cXu+fYXRsbZy29vFAn1YUVB+6AM/wBa3KUrePMilKUApSlAKUpQClKUApSlAKUpQGntjZkVzBJBKOKOVSrD5EeBBwQfECvzdfWEuzLx7Wf6ucq/RlP1ZB5HkfAg+Ffp2oxv9udFtG34CQkyZMMuPqt9k+KHqPfzFRlFSVMtw5pYZqceUUDIeG+U9HA+8Ef0FbN4MOa5V9Z3FtdLDcKUkhZRg/Z4sgg/nKdcGuxtAe37hV+BVCvUa+tmsmZzXfc1q0xeqSgOhEi5B6YYZ18K3CitoxYDxUgH7xWpf2ECxs4Z8rgkEjUZGenPGanK+xRDpvc3b+6j4z7a9Oo8K1Gv4x+d9xq79m9k+yUAJieXIBzJK5z7lIH3V3bTcnZkf1LK3B8TEpPxIJqDystWFH5sm2nARhjn1/61pC8RG4oZGRhyw2D8Qc1+so9kWy/VgiHpGg/pXp9l255wxH1jU/0qDk2TjBLg/LFzvDcyd0WfLwOHjkwA4III1GhGQDqOlYo9onm2WbGB0AGSce8kk+tW72w7v2sdpJNHbxRujxe2iKpw0iqRoP1qrjbNvCIW4FUMMEcIGeeuo8qlFN2zE3FVGuTjXG1OIFRgZ565NSTdncval9GvdJ3UHSSQ92rDOpAA4n9QMedWDsLZUV9uyECL3ixSBW4Rxd5C7cJzz14QPQ1191e8vNiW/DNKh7pQ5g4BK4ReEorvohJXn94quXpclkG4J9OxyN3eyOwiYLdz/SJSNIg3dKPMKrcbepOPKuJvNsX/AEDfW95bM/0aRuGRCSxAGrpnmwK5Zc6gqdasDdaB7Yd3FstoVJyztPC8jn7TniJY+pNYe2GwEuyZz1i4ZR5cDAt/JxUBNI3DAMDkEAgjkQdQa9VD+ybahuNlQE6tEDE2f/TPCv8ALwn31MKGBSlKAUpSgFKUoBSlKAUpSgFKUoBSlKAp38ISID6FJjUGUE9f0TAfcfjUJ2kfb939TVnduOw57i1heGNpO4di6oMtwMuMhRqcEDl41TC7WJOJBgjQkDljxHSrcckrTKssG6aN+sN6nFG48VPyrIjgjIOR5V9YZGKtKFsz9Gbo3fe2NrJ9uCM/yDP3116hPY3ed5smEdYTJGfLhckfylam1apuClKUBX/a8mdn3PksZ+EqH+lUvdDMbfsn5VefahFxWF55QM38I4v8NUK99Hw4zkkY0B8KsxtbleRN1RbnYXtBf9HzRt+jnbA8nRW+fFWfsim4dl91lgElmQFThgBKx0PjhqgnZTsq/ue/jtrn6NEOAyyd3xEt7QCoTyOM51HSpXf9j0iQP9Gv5zLqyoWMcbtnXPCdCfHxxmqy0mUOzFVuIXN6D5z8Y+Dgise++0UXZ9wWJKrBIDxYyxKFVGmmSTj31Wthu3tG3xnYvfSD9K17xZPjw8eBXVud1NtbTZEu1SztVYFo1dWY464UtxN4cRAHPBoCUditk0eyoy36V5JB6FuFT7woPvqd1hsrVIo0ijUKkahUUcgqjAHwFZqGBSlKAUpSgFKUoBSlKAUpSgFKUoBSlKAVHt59y7G+H4+IcfSVPYkH7w+sPJsjyqQ0oChNv9kN9AS1o4uE6DIjlA8wTwt7iPSonNYbRibhktJ8jxt5dfQquD7q/U9Kym1wYaT5Kk7AL/2Ly3OQySrLwnTHGvAwwfAxa+tW3VQ7KH0HeiWLOI71Cyjzcd4P/kjlHvq3qwZFKUoCL79x8Vrcjxtpf+W9Vrtndu2/0Es0UKLKIoZWkC+2ccJkyx15FtOVWtvZFmCQfaikHxQ/51CtjMjbBjEjBVazKksQB+TK8zQyTDs8dDsuzKAAdxHkD7QUBvfkGpDVfdht2z7KVTn8VLIoz4Eh8e4uRVg0MClKUApSlAKUpQClKUApSlAKUpQClKUApSlAKUpQClKUApSlAVV23WrQtZ7RjHt20oDY6gMJEGfDKsv79WTszacNwgkhkSRWAOVYHGfHB0NYd49ixXltJbS54JBzGOJSCGVhkEZBAPuqprvsRnRuO2vFz0Lo0bfxoT8qAuuvhOKpSLcbeWLRL4Ef/wBk5HweOsjbn70Po16vvuXH92KgLT2rKjrwg+OT0wRjnVG9nG4Ee0O+76d0W2cJwIASc51DNkKNCNBXbPZJtSf/AGq/Qg8x3k8w+DhRVkbj7nQbNhaOMl3kIMkjYBYgYUADRVGTgeZ8aGTp7A2LBZwLBAvDGmeuSSdSxJ5knrXRpShgUpSgFKUoBSlKAUpSgFKUoBSlKAUpSgFKUoBSq27ZtkotnJepJNHMjRDKTyqpDSLGQUDcPJuYAOQKjvYns/6U8008s7tbvEYwbibhB9pslQ2G1A0OR5UBddK+MwAydAOta1vtKB24UmjdhzCurH4A0BtUry8ijmQPU4rHHdRtnhdTjU4YHA88cqAzVytrbx2dswW4uIomYZVXcKSM4yAeY0ratdp28jFY5o3ZeapIrEeoB0qN9rFujbJuSyglFBUkagh1wQelAd3Yu37W7Dm2mSURkByhzgnUfKulVRfg+HEV5+3H/derV+nQ/wC8T+Nf86A1ts7etbUKbmeOEOcLxsBnxwOv9K3oZVdQykMrAFWByCDyII5iq/7Tdxl2hJFKt0kLxqUIk1UqTxZGoIbPx08Klu7Gzo7SzhgSTjSJAokJHtc8nTQDOdOlAdalYUu4yeEOpbwDAn4ViXaluZO6E0Rk/wB2JF4/4c5oDbpStWfaUCNwvNGrH81nUH4E5oDapXhJlJIDAkYJAIJAPInwzXugFKUoBSlKAUpSgFKUoBSlKAV8ZgBknA8TX2qo/CAtJ3t7d1BMCO/egagMQvdu3gBhxk6AsPGgO721f2PP+3B/9iOo1+D19S8/ai+T1yt576O23fg2e1xHPcSMh4Y3EnAgl74LkHkAFQfdoNJf2J7uzWtpJJMpRrhwyowwwjVcKSOhJLHHhihkhHadvK91tP6EzslpDKkbqnF7ZJXvGIXViMlQPLPM1l7UY7ORbZtnwSLJCSp7q2miITAK68A1BGh5jJrS7U9h3FltI3qqTFJIs0b49lZAQSjEcvaXPmG05GrQsu1HZTxCQz8LEfkSrGXi+yFAPEc6aZzQHC4Pp+7zS30RM9vFNwvIpWQNHnhk1AIJULnx1qG9jOwY7uW6jlZxF3cZkjRuAS5Z+EMw9rhGCcAjOdeWKsveXeEHZE8l2q2jTxzLDFI47xgVIjBXpIQQSgzjPOoB2B7QijurhHkVWmSMRqSAXKs5IHicEHFAcHfuwTZe1v8AymUEYjljHETw55pnmVJU6Ho2KuvtS/sm7/4Y/vrVLdst/FNtORopFkVYkQlGBHEvFxLkdRmrT7Sd5bKTZEvBcxN9ITEIVwTIVdeIKOZx18OtAQXsr3ltrGyvZJznieNUiGC0p4H9kA9PEnQCpjuFuXsyeMbQMUUr3BLhAgEMBzgxrHyypGCx1JBIxnFV92cbFs763u7WR40unKNalsceUVyeHqV+0B016CsvZjva2zLuS1ujwQu5WUN+hlX2eP8AZOOE+49KA63b1sS3ia3mjiVJJ2k70qMcZAQgkfa1OtTncPZUFzsS1hnjWSMx6qw0yGbBHgR0I5VB+3XbdrOLRYZ45SpkZgjhsKypwk45ZxpUv7NN5bJNkxcdzEv0dAs3E4Xuyztw8WeWenj0oCpuy/ZffbTWHvHjBSUM0ZCuyAYKhseznqRrzxjnXS7YN1rawntzaqYxKrkjiY4aNkwwJOQTx+PStHso2nDDtVJJZFjRlkAZzwjLj2QSeWfOpD2/30T3FtGkis8KS94oYEoXMRUMOhIBOKAnW09sXX+r30mNj35tY2LjmMhe8ceYUs2fKqv7N95NmW6zJtCAStM2e/aMTezwgFGBy2M5ORnPEfCpzb73iDYNtNaskrwfRo5oxhjqyq8ZHNWIyB8a1tp7t7v3ts91DKlsQrFijhOBgMkPCTgHPMADyNASDs32RaxS3c9lMklrcdz3aqxLROne8aEHVR7a4B15joMzmqU/B+sJxLcT8LLA0arkggO4bIx9rhHFr+vV10MClKUApSlAKUpQClKUApSlAK19ofkpP2G+Rr7SgKW7Pv7SP7Z+dXhSlAaO3P8AZ5f2TVUdnf8AaHxpSgLR25yX1P8AStCw/KL60pQGGTmfU/Ossv1E/e+YpSgPezPyq+/+6a87Q/Kt6/0pSgMLf5fIVli/Jv8Au/M0pQGFedbG0fyrev8AQUpQHyP8mP8AjQ/8wVXG/n9pj1FKUMlw7N/Ix/sj5Vs0pQwKUpQClKUApSlAf//Z" vertex="1" parent="1">
          <mxGeometry x="1020" y="360" width="120" height="120" as="geometry" />
        </mxCell>
        <mxCell id="FG6nhcTltKGhE41hHq1z-23" value="" style="shape=image;verticalLabelPosition=bottom;verticalAlign=top;imageAspect=0;aspect=fixed;image=data:image/webp,UklGRvIKAABXRUJQVlA4TOYKAAAv/8A/EBp72j4pktzoKJI9qq9acA3T/Bbuf5zZ7ozIyKia/zRRSoOYmcnMzLbkNpIkSRptZo+qYOSu/nqcZfVdMSRGkqRIcn4OpryOVMH/iSMJAACQbfNgXTHbtm3btm3btrfbtm3bnm2rRhoJkiRJUuOZKXGjWzPDwAPq1s+d/+78d+e/O/89h5zH9wCAB/iuznBsh96LoMpXfVQRVXTViGqvSmlHgCZ0wk+gAjoBgRm4AqHLWXgTVIaqaRV6FhVNlbMX2OGCE8Cel4FhMN8Alblq57iMqnYfrHDBp9kM0MBtE9uZwtFpBLYWJDawnSlL7aeWCXvzb28KzdMEm8vBkX27U3hnm2CYmMriZvtTWHGAsNTzRVW3cUB3gLTM80bVsG0vOkCKByj8+DILyoO3S4VZB/D3gIzGDwqixlHJ9uw4VPVbBg8dQMUD2jMoVdONXXoQCmwwVR5wq+nWKYgA2QTlLjDedPsUqiwwsVqCBwgCu+n2KddAb7fBGuiUB/jOwVRmv2x1l97YlROCGqA0wCuGYrnAgcF++hvV5C/37pnMSEAZvIDVdyaQ4DccBNvyBQvDctOg443Abjmnrwe4uIfLHwiYTWMOt3ay5ffsfQDwuW3I0ebuF2Jm24iD7d0vKMKWYcC5xu4XpGBsDqSyVO0eh6+/V71S9apqVN2qZyq6+xxkZ7wN83Ogn97MbDt6Ela1qBj7V1CHs4BMC6RHP9zZUpmqVnetHDiwgFJ4D+xpB1iwaQQqex/ur54MVJSUr7AgA35QDkfgHnyEfzACozAEP+EN3IB9UAAuC3w94OXbroDOmbcBATQk0NS5iKpKj2xd5sSA12uOCymAwASMeAIWjzy5g3X+2oLZGdiaQbqe64zql0WFU23kKkPkdViZYQGnqqofzgTCd6jOlxXVyUwnYexgoRp25wwGnhmE71DlmVQZiY4//gD/AZ3hICctlVXHDlWUSRV6pCn4AhnQAaAvg/AdqlSTKuHIUggBJqAjwN0MwneoBkx/P5IUrP4B6BAwmEH4DtXE/b4Ai6r5yFEGP8wDOga0wUICvnVGFWj5zv9XQLU3R+EYoMEA+QJGwbQeZTkn9H84AdtuWDOs5Vkg2AQNnxnBysbvUM2phDIWNH9qg3U4Deng+sIL4AF5cB2o1tuDRkgEvx+tqLMrfJoTqlaWXSwEwbhDO7PzvMu1/qg+qfgTFk4BaoFVSFnB1EWWIQg9f53N/Ko8Abdg43cc/1Y5petieIFigd8MyWoGvI1/ksHDg6EcrHtBUcWeu36+CHWe7//9AoYXwgE1wCKIlRFIboNhzgk5gFKwFDtU6edU9/UmevmgaqDvR6lq7PeJBSLK8vT3A4DPxl0Vw3UummpS9V9PYkn6tgFmTzNQmYHoNng+XN/iHarBHF0vMDAMsK9sC0LAbr+R1QqO1rURkhSkATVAfDkCc7MZCBitZ0MkKeiZR5Qe8KUN6kbr2CiH6r9KtPFOP1a9UV1T3f/ViL5g+Xn3vXVwfDTvVMRjkLOqL9E6z/1ff8C99wtTN1FpqI6qWOEFYws4esD/Nrg8mvvhYS4eNKKyUa1Gl6VugQSH01nsP9rgQkIqk5eOcS4fNKLS/Tj4/sTV8FrgqAN4zjY4mI+KSzV7jOOuKtn7w1UFuQtLBthYLd4GTw1QmY+q6Bio0XvPF87w/b//QNWIk2rmuv+wF9yZRqCx77BrTvDPR/U5g1+VFVWN98ercvKCHAswIdAA7kAxvANi+ahIGajOmlSOXqoy94HXX82PjUEzlrthtdzQav6g4Fvlo2JkoOow6U3dS9VS3sBdx2UXOAABoMwg8HmAp3uxC/LgBwcdl88gLyHVaAaqXpNK10uV4wbm78y4wDaLLyHV3gxU902qIK9Pyx04HwjKKyGVkoqWwMf3uvCWV5xUb8sPhD4IA3+WWUxGpcpK4HjLoBJWEX1UZJV2dQRMgBQEdkC9UipVdQJfqsTaVGcOFxVV5VpdAQcghvgIHCsDZ8c7VJ/VF2/zZoQRqwI9GA8Am2BbKXg73vEHlcEFvfGoDo9ZFXBDD9B6wWdQrAwgrtwd71AhquvPq6T1XtjrElBZqlpVq6NWtSIMf/rABuQ8OQ/QYx/HnhQgu9xRVY3hy7iBFAzOHjAJxQs8VTlAa3V0hFwDZZiel4D+geGn8Bt6wPqZ6wmoGgaYFrhXPR0g1TCazZNvaCiQAmdI/yMcgjNwBa7B+a+g7kWwZHA/+iEPBGQL7C4W39V4mQY6sDobYHSdwZaVwWBxWoHS6mq4RFuXBqw0T6zBqXKBXyagQ2jLskQh9U2z0fIM5H82W+BsJQM3px14ARlgiVVZrQJovfHXr+DXO4DC/PrlBRhS1YTK/JzqQ5oBHv62/38FkXgLKiawMEDL7AwY14Cq+u894ercdRdG1ZFkBZ3GifUr8BiuwNGPoBKyfgteYI3VAkl28DHA1QQB1uec9YLGiq+qplpRleQYiHcdb/4DlmAQ3sB1OAQ1kAguGMV172EfdoVfgMi/wHnYsg/P4QLUQTRYLohdAt5f9J7IVnhVD+7/+gOqGdWNDCvInzEBBvyFs5Czovv4HoAFlmdPgHjaxdZ54MbszEvRVSEqtWpTyauYCVZwaQYG5qAHNKxjiq6cFu4CWPeC3Aqu6lVZUT1KsIJHMzTvvMFQCldwqxO8qOCq6kyqsgQruDyD8+sXwy2IwnyfHwN/cFVxJlVYghWUz/BAcbTCaL3bdSULuoGvfI2jCk+wApWfhnsHvKMVSMEr908APkEKu7zhh+CqepOqPMGq4Ej8dzC/zhJitD/1FELgu+c/sq+gGCM/4hxE9cakepJhtdxw8DS+kBXECGi/APdg5p3LD2zBBNyCOnBe4a6bDKiKrdKwrtmrWD4qisqlgrPcOKD6lWjw9dyC8oJKV749z0A5AjiQAyOwBkewe/mjq2sxFRNVpbOqxw/fd6BNddv5cPiqrs5AcDH82QvCtYmoKpxVNfX/1nygcq1wpwXCuRkecK0tV3Xg+r1wF9SFVfVmWcHB5onG6+/EgMwan6HPVE2rcu+V1I3rklBlqSbdrxEPcpt/ocC/rn4CmeUHBTAEJwiGVKiEbjgBt+A1/IF5IHlBXdWmHzwO1ZpqTLXqfq8j9gegt0Bf2VkX56dgBjGwH5Zs0FF5E3RcMfhgu+u2Ilg8QShnuHHCXhO01Yaaf3+YLVBT7jz9/QmA//YXV9pSs6/+0gSW5Q+ctEB0barJV3C3CbQ6wA0L6Ne2O/6tdVwYh3A/4IJN64vLPvVj4dpYU69gpP0ZR8xi3eDwNMDZqq01agm+mV+BjA9W1L4083xtr4lXcNu6tQSOv4ohWBbLA56/BbI5eF+1wQ7YwMtOwIRBuAMHoQkqoOj3UADFUAtdcAIewwQg0/EDA6PaZNOuQBXYMzxfV22zWVf1Rji4su6CtdVmXf3ni2Bw9ebWw8026arA4aNIgEDz1QWsDUdVlnRVYPmzODAG9lW16SZd1bKE4MRPY8Ay5K9wbv6LWb3nusySJKAOR4DYDz5Cwjonrqq2X8fy5LQIEAynYKbng23wBApBsXYi71lL90WUX4ISOAovYAi2jRvFYBAeQD8kgzEWUzfZoX6gcq6kecpgll1BkGdoreiBEZiCCbv6WDWWBAeudiiqEhX7goqocqpbOipP1ej5LQh/rFs79//9gCorVb6qVpWmUq9bP3f+u/Pfnf/u/Peccgo=" vertex="1" parent="1">
          <mxGeometry x="519" y="381" width="78" height="78" as="geometry" />
        </mxCell>
      </root>
    </mxGraphModel>
  </diagram>
</mxfile>
